<svg xmlns="http://www.w3.org/2000/svg" xmlns:xlink="http://www.w3.org/1999/xlink" width="790" zoomAndPan="magnify" viewBox="0 0 592.5 172.499995" height="230" preserveAspectRatio="xMidYMid meet" version="1.2"><defs/><g id="6ebaf4bb50"><g style="fill:#314158;fill-opacity:1;"><g transform="translate(10.831215, 135.357649)"><path style="stroke:none" d="M 4.015625 -40.203125 C 4.015625 -48.429688 5.570312 -55.65625 8.6875 -61.875 C 11.800781 -68.101562 16.035156 -72.890625 21.390625 -76.234375 C 26.753906 -79.585938 32.738281 -81.265625 39.34375 -81.265625 C 44.601562 -81.265625 49.410156 -80.160156 53.765625 -77.953125 C 58.117188 -75.753906 61.539062 -72.789062 64.03125 -69.0625 L 64.03125 -106.25 L 88.59375 -106.25 L 88.59375 0 L 64.03125 0 L 64.03125 -11.484375 C 61.738281 -7.660156 58.460938 -4.597656 54.203125 -2.296875 C 49.941406 0.00390625 44.988281 1.15625 39.34375 1.15625 C 32.738281 1.15625 26.753906 -0.539062 21.390625 -3.9375 C 16.035156 -7.34375 11.800781 -12.179688 8.6875 -18.453125 C 5.570312 -24.722656 4.015625 -31.972656 4.015625 -40.203125 Z M 64.03125 -40.0625 C 64.03125 -46.1875 62.332031 -51.019531 58.9375 -54.5625 C 55.539062 -58.101562 51.398438 -59.875 46.515625 -59.875 C 41.640625 -59.875 37.5 -58.125 34.09375 -54.625 C 30.695312 -51.132812 29 -46.328125 29 -40.203125 C 29 -34.078125 30.695312 -29.21875 34.09375 -25.625 C 37.5 -22.039062 41.640625 -20.25 46.515625 -20.25 C 51.398438 -20.25 55.539062 -22.019531 58.9375 -25.5625 C 62.332031 -29.101562 64.03125 -33.9375 64.03125 -40.0625 Z M 64.03125 -40.0625 "/></g></g><g style="fill:#314158;fill-opacity:1;"><g transform="translate(108.32457, 135.357649)"><path style="stroke:none" d="M 4.015625 -40.203125 C 4.015625 -48.429688 5.570312 -55.65625 8.6875 -61.875 C 11.800781 -68.101562 16.035156 -72.890625 21.390625 -76.234375 C 26.753906 -79.585938 32.738281 -81.265625 39.34375 -81.265625 C 44.988281 -81.265625 49.941406 -80.113281 54.203125 -77.8125 C 58.460938 -75.519531 61.738281 -72.507812 64.03125 -68.78125 L 64.03125 -80.109375 L 88.59375 -80.109375 L 88.59375 0 L 64.03125 0 L 64.03125 -11.34375 C 61.644531 -7.613281 58.320312 -4.597656 54.0625 -2.296875 C 49.800781 0.00390625 44.847656 1.15625 39.203125 1.15625 C 32.691406 1.15625 26.753906 -0.539062 21.390625 -3.9375 C 16.035156 -7.34375 11.800781 -12.179688 8.6875 -18.453125 C 5.570312 -24.722656 4.015625 -31.972656 4.015625 -40.203125 Z M 64.03125 -40.0625 C 64.03125 -46.1875 62.332031 -51.019531 58.9375 -54.5625 C 55.539062 -58.101562 51.398438 -59.875 46.515625 -59.875 C 41.640625 -59.875 37.5 -58.125 34.09375 -54.625 C 30.695312 -51.132812 29 -46.328125 29 -40.203125 C 29 -34.078125 30.695312 -29.21875 34.09375 -25.625 C 37.5 -22.039062 41.640625 -20.25 46.515625 -20.25 C 51.398438 -20.25 55.539062 -22.019531 58.9375 -25.5625 C 62.332031 -29.101562 64.03125 -33.9375 64.03125 -40.0625 Z M 64.03125 -40.0625 "/></g></g><g style="fill:#314158;fill-opacity:1;"><g transform="translate(205.817925, 135.357649)"><path style="stroke:none" d="M 4.015625 -40.203125 C 4.015625 -48.429688 5.570312 -55.65625 8.6875 -61.875 C 11.800781 -68.101562 16.035156 -72.890625 21.390625 -76.234375 C 26.753906 -79.585938 32.738281 -81.265625 39.34375 -81.265625 C 44.601562 -81.265625 49.410156 -80.160156 53.765625 -77.953125 C 58.117188 -75.753906 61.539062 -72.789062 64.03125 -69.0625 L 64.03125 -106.25 L 88.59375 -106.25 L 88.59375 0 L 64.03125 0 L 64.03125 -11.484375 C 61.738281 -7.660156 58.460938 -4.597656 54.203125 -2.296875 C 49.941406 0.00390625 44.988281 1.15625 39.34375 1.15625 C 32.738281 1.15625 26.753906 -0.539062 21.390625 -3.9375 C 16.035156 -7.34375 11.800781 -12.179688 8.6875 -18.453125 C 5.570312 -24.722656 4.015625 -31.972656 4.015625 -40.203125 Z M 64.03125 -40.0625 C 64.03125 -46.1875 62.332031 -51.019531 58.9375 -54.5625 C 55.539062 -58.101562 51.398438 -59.875 46.515625 -59.875 C 41.640625 -59.875 37.5 -58.125 34.09375 -54.625 C 30.695312 -51.132812 29 -46.328125 29 -40.203125 C 29 -34.078125 30.695312 -29.21875 34.09375 -25.625 C 37.5 -22.039062 41.640625 -20.25 46.515625 -20.25 C 51.398438 -20.25 55.539062 -22.019531 58.9375 -25.5625 C 62.332031 -29.101562 64.03125 -33.9375 64.03125 -40.0625 Z M 64.03125 -40.0625 "/></g></g><g style="fill:#314158;fill-opacity:1;"><g transform="translate(303.311291, 135.357649)"><path style="stroke:none" d="M 4.015625 -40.203125 C 4.015625 -48.429688 5.570312 -55.65625 8.6875 -61.875 C 11.800781 -68.101562 16.035156 -72.890625 21.390625 -76.234375 C 26.753906 -79.585938 32.738281 -81.265625 39.34375 -81.265625 C 44.601562 -81.265625 49.410156 -80.160156 53.765625 -77.953125 C 58.117188 -75.753906 61.539062 -72.789062 64.03125 -69.0625 L 64.03125 -106.25 L 88.59375 -106.25 L 88.59375 0 L 64.03125 0 L 64.03125 -11.484375 C 61.738281 -7.660156 58.460938 -4.597656 54.203125 -2.296875 C 49.941406 0.00390625 44.988281 1.15625 39.34375 1.15625 C 32.738281 1.15625 26.753906 -0.539062 21.390625 -3.9375 C 16.035156 -7.34375 11.800781 -12.179688 8.6875 -18.453125 C 5.570312 -24.722656 4.015625 -31.972656 4.015625 -40.203125 Z M 64.03125 -40.0625 C 64.03125 -46.1875 62.332031 -51.019531 58.9375 -54.5625 C 55.539062 -58.101562 51.398438 -59.875 46.515625 -59.875 C 41.640625 -59.875 37.5 -58.125 34.09375 -54.625 C 30.695312 -51.132812 29 -46.328125 29 -40.203125 C 29 -34.078125 30.695312 -29.21875 34.09375 -25.625 C 37.5 -22.039062 41.640625 -20.25 46.515625 -20.25 C 51.398438 -20.25 55.539062 -22.019531 58.9375 -25.5625 C 62.332031 -29.101562 64.03125 -33.9375 64.03125 -40.0625 Z M 64.03125 -40.0625 "/></g></g><g style="fill:#314158;fill-opacity:1;"><g transform="translate(400.804634, 135.357649)"><path style="stroke:none" d="M 21.25 -88.4375 C 16.9375 -88.4375 13.414062 -89.703125 10.6875 -92.234375 C 7.96875 -94.773438 6.609375 -97.914062 6.609375 -101.65625 C 6.609375 -105.476562 7.96875 -108.65625 10.6875 -111.1875 C 13.414062 -113.726562 16.9375 -115 21.25 -115 C 25.457031 -115 28.925781 -113.726562 31.65625 -111.1875 C 34.382812 -108.65625 35.75 -105.476562 35.75 -101.65625 C 35.75 -97.914062 34.382812 -94.773438 31.65625 -92.234375 C 28.925781 -89.703125 25.457031 -88.4375 21.25 -88.4375 Z M 33.453125 -80.109375 L 33.453125 0 L 8.90625 0 L 8.90625 -80.109375 Z M 33.453125 -80.109375 "/></g></g><g style="fill:#314158;fill-opacity:1;"><g transform="translate(443.161822, 135.357649)"><path style="stroke:none" d="M 4.015625 -40.203125 C 4.015625 -48.429688 5.570312 -55.65625 8.6875 -61.875 C 11.800781 -68.101562 16.035156 -72.890625 21.390625 -76.234375 C 26.753906 -79.585938 32.738281 -81.265625 39.34375 -81.265625 C 44.988281 -81.265625 49.941406 -80.113281 54.203125 -77.8125 C 58.460938 -75.519531 61.738281 -72.507812 64.03125 -68.78125 L 64.03125 -80.109375 L 88.59375 -80.109375 L 88.59375 0 L 64.03125 0 L 64.03125 -11.34375 C 61.644531 -7.613281 58.320312 -4.597656 54.0625 -2.296875 C 49.800781 0.00390625 44.847656 1.15625 39.203125 1.15625 C 32.691406 1.15625 26.753906 -0.539062 21.390625 -3.9375 C 16.035156 -7.34375 11.800781 -12.179688 8.6875 -18.453125 C 5.570312 -24.722656 4.015625 -31.972656 4.015625 -40.203125 Z M 64.03125 -40.0625 C 64.03125 -46.1875 62.332031 -51.019531 58.9375 -54.5625 C 55.539062 -58.101562 51.398438 -59.875 46.515625 -59.875 C 41.640625 -59.875 37.5 -58.125 34.09375 -54.625 C 30.695312 -51.132812 29 -46.328125 29 -40.203125 C 29 -34.078125 30.695312 -29.21875 34.09375 -25.625 C 37.5 -22.039062 41.640625 -20.25 46.515625 -20.25 C 51.398438 -20.25 55.539062 -22.019531 58.9375 -25.5625 C 62.332031 -29.101562 64.03125 -33.9375 64.03125 -40.0625 Z M 64.03125 -40.0625 "/></g></g><g style="fill:#009689;fill-opacity:1;"><g transform="translate(540.658726, 135.357649)"><path style="stroke:none" d="M 20.390625 1.15625 C 16.078125 1.15625 12.554688 -0.113281 9.828125 -2.65625 C 7.109375 -5.195312 5.75 -8.332031 5.75 -12.0625 C 5.75 -15.882812 7.109375 -19.085938 9.828125 -21.671875 C 12.554688 -24.265625 16.078125 -25.5625 20.390625 -25.5625 C 24.597656 -25.5625 28.066406 -24.265625 30.796875 -21.671875 C 33.523438 -19.085938 34.890625 -15.882812 34.890625 -12.0625 C 34.890625 -8.332031 33.523438 -5.195312 30.796875 -2.65625 C 28.066406 -0.113281 24.597656 1.15625 20.390625 1.15625 Z M 20.390625 1.15625 "/></g></g></g></svg>