<svg xmlns="http://www.w3.org/2000/svg" xmlns:xlink="http://www.w3.org/1999/xlink" width="500" zoomAndPan="magnify" viewBox="0 0 375 374.999991" height="500" preserveAspectRatio="xMidYMid meet" version="1.2"><defs/><g id="23ec168abc"><g style="fill:#314158;fill-opacity:1;"><g transform="translate(33.738284, 298.87498)"><path style="stroke:none" d="M 8.953125 -89.59375 C 8.953125 -107.945312 12.421875 -124.054688 19.359375 -137.921875 C 26.296875 -151.785156 35.734375 -162.453125 47.671875 -169.921875 C 59.617188 -177.390625 72.957031 -181.125 87.6875 -181.125 C 99.414062 -181.125 110.132812 -178.671875 119.84375 -173.765625 C 129.550781 -168.859375 137.175781 -162.242188 142.71875 -153.921875 L 142.71875 -236.796875 L 197.4375 -236.796875 L 197.4375 0 L 142.71875 0 L 142.71875 -25.59375 C 137.601562 -17.0625 130.296875 -10.234375 120.796875 -5.109375 C 111.304688 0.00390625 100.269531 2.5625 87.6875 2.5625 C 72.957031 2.5625 59.617188 -1.222656 47.671875 -8.796875 C 35.734375 -16.367188 26.296875 -27.140625 19.359375 -41.109375 C 12.421875 -55.085938 8.953125 -71.25 8.953125 -89.59375 Z M 142.71875 -89.28125 C 142.71875 -102.9375 138.929688 -113.707031 131.359375 -121.59375 C 123.785156 -129.488281 114.5625 -133.4375 103.6875 -133.4375 C 92.800781 -133.4375 83.570312 -129.539062 76 -121.75 C 68.425781 -113.96875 64.640625 -103.25 64.640625 -89.59375 C 64.640625 -75.945312 68.425781 -65.125 76 -57.125 C 83.570312 -49.125 92.800781 -45.125 103.6875 -45.125 C 114.5625 -45.125 123.785156 -49.066406 131.359375 -56.953125 C 138.929688 -64.847656 142.71875 -75.625 142.71875 -89.28125 Z M 142.71875 -89.28125 "/></g></g><g style="fill:#009689;fill-opacity:1;"><g transform="translate(251.015617, 298.87498)"><path style="stroke:none" d="M 45.4375 2.5625 C 35.84375 2.5625 28.003906 -0.265625 21.921875 -5.921875 C 15.835938 -11.578125 12.796875 -18.5625 12.796875 -26.875 C 12.796875 -35.414062 15.835938 -42.5625 21.921875 -48.3125 C 28.003906 -54.070312 35.84375 -56.953125 45.4375 -56.953125 C 54.820312 -56.953125 62.554688 -54.070312 68.640625 -48.3125 C 74.722656 -42.5625 77.765625 -35.414062 77.765625 -26.875 C 77.765625 -18.5625 74.722656 -11.578125 68.640625 -5.921875 C 62.554688 -0.265625 54.820312 2.5625 45.4375 2.5625 Z M 45.4375 2.5625 "/></g></g></g></svg>